<?xml version="1.0" encoding="UTF-8"?><svg id="Layer_1" xmlns="http://www.w3.org/2000/svg" viewBox="0 0 352.4 137.89"><g><path d="m8.32,12.97c.72,0,1.32,0,1.91,0,18.29,0,36.57,0,54.86-.02,1.23,0,2.13.3,3.01,1.2,3.19,3.28,6.5,6.44,9.69,9.73.57.59,1,1.56,1.02,2.37.1,4.19.09,8.38,0,12.57-.01.72-.39,1.56-.86,2.12-1.44,1.69-3.02,3.28-4.67,5.04,1.76,1.75,3.51,3.39,5.12,5.14.49.53.87,1.39.88,2.11.07,5.28.07,10.56,0,15.83,0,.67-.36,1.49-.83,1.97-3.35,3.43-6.75,6.81-10.21,10.14-.52.5-1.41.85-2.13.85-18.78.05-37.56.04-56.33.03-.48,0-.95-.06-1.47-.1V12.97Zm14,57.1h42.9c.07-.28.15-.44.15-.59.01-5.44,0-10.88.04-16.31,0-1.13-.6-1.19-1.46-1.19-13.42.01-26.84.02-40.26-.01-1.09,0-1.4.38-1.38,1.42.05,3.1.02,6.2.02,9.3,0,2.43,0,4.87,0,7.38Zm.14-45.18v15.11h42.2v-15.11H22.47Z" fill="#d39e43"/><path d="m329.72,59.08c-.81,0-1.46,0-2.1,0-11.47,0-22.93-.01-34.4.02-1.12,0-1.94-.31-2.73-1.11-3.29-3.34-6.66-6.6-9.93-9.95-.5-.51-.85-1.39-.88-2.11-.1-2.61-.11-5.23,0-7.83.03-.72.4-1.58.91-2.1,3.31-3.39,6.67-6.74,10.1-10.02.55-.53,1.5-.93,2.26-.93,12.5-.06,25.01-.06,37.51,0,.77,0,1.71.41,2.26.94,3,2.86,5.81,5.91,8.88,8.69,1.69,1.53,2.37,3.16,2.2,5.4-.18,2.3-.04,2.31-2.3,2.31-3.39,0-6.77-.05-10.15.03-1.32.03-1.91-.3-1.78-1.71.11-1.18.02-2.38.02-3.69h-35.79c0,3.19-.03,6.33.06,9.46,0,.25.87.66,1.35.67,3.44.06,6.88.03,10.32.03,8.3,0,16.6-.03,24.9.05.91,0,2.03.46,2.69,1.08,3.33,3.14,6.58,6.37,9.75,9.68.63.66,1.09,1.74,1.13,2.66.14,2.82.12,5.66,0,8.49-.03.77-.41,1.69-.94,2.24-3.3,3.4-6.66,6.75-10.08,10.04-.52.5-1.4.88-2.11.88-13.43.05-26.86.05-40.29,0-.67,0-1.49-.36-1.97-.82-3.33-3.22-6.57-6.54-9.9-9.76-.89-.86-1.35-1.73-1.26-2.99.1-1.4.02-2.81.02-4.36h13.94v5.97h38.32v-11.24Z" fill="#d39e43"/><path d="m124.38,24.82c7.37,0,14.74-.03,22.11.04.76,0,1.71.39,2.26.92,3.42,3.28,6.79,6.62,10.09,10.02.56.58.97,1.58.98,2.4.07,10.28.07,20.57,0,30.85,0,.81-.44,1.8-1.01,2.38-3.26,3.37-6.58,6.67-9.96,9.92-.55.53-1.49.93-2.25.93-14.9.05-29.8.05-44.7,0-.76,0-1.69-.41-2.24-.94-3.42-3.28-6.78-6.63-10.09-10.02-.5-.51-.89-1.38-.89-2.09-.06-10.45-.05-20.89,0-31.34,0-.66.35-1.49.82-1.96,3.39-3.47,6.83-6.89,10.32-10.25.51-.49,1.41-.81,2.14-.81,7.48-.06,14.96-.04,22.43-.04Zm21.42,12.1h-42.97v33.44c.5.04.93.1,1.35.1,13.37,0,26.74-.01,40.1.03,1.34,0,1.64-.43,1.63-1.68-.04-10.17-.02-20.34-.03-30.51,0-.42-.05-.85-.09-1.38Z" fill="#d39e43"/><path d="m184.06,36.91h-18.8v-11.8h51.92c0,2.99,0,5.91,0,8.83q0,2.95-2.92,2.95c-6.88,0-7.2,0-14.08,0h-1.99v45.34h-14.12v-45.31Z" fill="#d39e43"/><path d="m239.65,36.91h-18.8v-11.8h51.92c0,2.99,0,5.91,0,8.83q0,2.95-2.92,2.95c-6.88,0-7.2,0-14.08,0h-1.99v45.34h-14.12v-45.31Z" fill="#d39e43"/></g><g><path d="m13.01,107.69h3.06v-8.9h-3.06v-1.9h8.38v1.9h-3.06v8.9h3.06v1.9h-8.38v-1.9Z" fill="#d39e43"/><path d="m28.84,96.89h2.37l3.36,7.13,1.15,2.71h.05c-.09-1.3-.31-2.91-.31-4.33v-5.52h2.15v12.7h-2.37l-3.36-7.14-1.15-2.71h-.05c.09,1.35.31,2.88.31,4.29v5.56h-2.15v-12.7Z" fill="#d39e43"/><path d="m44.87,96.89h2.37l3.36,7.13,1.15,2.71h.05c-.09-1.3-.31-2.91-.31-4.33v-5.52h2.15v12.7h-2.37l-3.36-7.14-1.15-2.71h-.05c.09,1.35.31,2.88.31,4.29v5.56h-2.15v-12.7Z" fill="#d39e43"/><path d="m60.3,103.19c0-4.17,2.05-6.52,4.99-6.52s5,2.35,5,6.52-2.05,6.64-5,6.64-4.99-2.39-4.99-6.64Zm7.67,0c0-2.91-1.05-4.56-2.67-4.56s-2.67,1.65-2.67,4.56,1.05,4.68,2.67,4.68,2.67-1.68,2.67-4.68Z" fill="#d39e43"/><path d="m76.04,96.89h2.4l1.78,6.38c.41,1.44.69,2.69,1.12,4.12h.08c.42-1.43.73-2.69,1.12-4.12l1.76-6.38h2.31l-3.93,12.7h-2.69l-3.95-12.7Z" fill="#d39e43"/><path d="m96.02,96.89h2.66l4.11,12.7h-2.4l-1.91-6.75c-.38-1.34-.79-2.78-1.13-4.19h-.08c-.36,1.41-.74,2.85-1.12,4.19l-1.93,6.75h-2.31l4.12-12.7Zm-1.67,7.48h5.95v1.78h-5.95v-1.78Z" fill="#d39e43"/><path d="m112.25,98.79h-4v-1.9h10.26v1.9h-4v10.8h-2.26v-10.8Z" fill="#d39e43"/><path d="m125.22,107.69h3.06v-8.9h-3.06v-1.9h8.38v1.9h-3.06v8.9h3.06v1.9h-8.38v-1.9Z"
                                                                                                                                                                                                                                                                                                                                                                                                                                                                                                                                                                                                                                                                                                                                                                                                                                                                                                                                                                                                                                                             fill="#d39e43"/><path d="m140.16,96.89h2.4l1.78,6.38c.41,1.44.69,2.69,1.12,4.12h.08c.42-1.43.73-2.69,1.12-4.12l1.76-6.38h2.31l-3.93,12.7h-2.69l-3.95-12.7Z" fill="#d39e43"/><path d="m157.64,96.89h8.14v1.9h-5.88v3.25h4.98v1.9h-4.98v3.75h6.08v1.9h-8.34v-12.7Z" fill="#d39e43"/><path d="m189.33,96.89h4.25c2.63,0,4.68.93,4.68,3.77s-2.05,3.97-4.68,3.97h-1.97v4.96h-2.27v-12.7Zm4.01,5.93c1.74,0,2.68-.73,2.68-2.16s-.95-1.97-2.68-1.97h-1.74v4.13h1.74Zm1.44-.15l3.96,6.92h-2.54l-3.07-5.56,1.64-1.35Z" fill="#d39e43"/><path d="m205.73,96.89h8.14v1.9h-5.88v3.25h4.98v1.9h-4.98v3.75h6.08v1.9h-8.34v-12.7Z" fill="#d39e43"/><path d="m220.9,107.97l1.31-1.55c.96.87,2.21,1.45,3.54,1.45,1.48,0,2.26-.65,2.26-1.54,0-1.13-.87-1.43-2.11-1.96l-1.75-.76c-1.33-.52-2.71-1.5-2.71-3.37,0-2.02,1.82-3.58,4.41-3.58,1.56,0,3.03.61,4.07,1.62l-1.15,1.43c-.86-.69-1.74-1.08-3.02-1.08-1.21,0-2.02.54-2.02,1.48,0,.99,1.01,1.35,2.17,1.79l1.67.72c1.62.62,2.76,1.59,2.76,3.42,0,2.06-1.74,3.78-4.71,3.78-1.79,0-3.48-.68-4.72-1.86Z" fill="#d39e43"/><path d="m237.79,96.89h8.14v1.9h-5.88v3.25h4.98v1.9h-4.98v3.75h6.08v1.9h-8.34v-12.7Z" fill="#d39e43"/><path d="m256.32,96.89h2.66l4.11,12.7h-2.4l-1.91-6.75c-.38-1.34-.79-2.78-1.13-4.19h-.08c-.36,1.41-.74,2.85-1.12,4.19l-1.93,6.75h-2.31l4.12-12.7Zm-1.67,7.48h5.95v1.78h-5.95v-1.78Z" fill="#d39e43"/><path d="m269.48,96.89h4.25c2.63,0,4.68.93,4.68,3.77s-2.05,3.97-4.68,3.97h-1.97v4.96h-2.27v-12.7Zm4.01,5.93c1.74,0,2.68-.73,2.68-2.16s-.95-1.97-2.68-1.97h-1.74v4.13h1.74Zm1.44-.15l3.96,6.92h-2.54l-3.07-5.56,1.64-1.35Z" fill="#d39e43"/><path d="m285.03,103.28c0-4.15,2.53-6.62,5.88-6.62,1.57,0,2.83.75,3.64,1.58l-1.26,1.41c-.63-.63-1.39-1.02-2.38-1.02-2.11,0-3.56,1.74-3.56,4.59s1.45,4.65,3.61,4.65c1.04,0,1.86-.48,2.56-1.26l1.26,1.37c-1.01,1.19-2.35,1.85-4.05,1.85-3.15,0-5.71-2.33-5.71-6.55Z"
                                                                                                                                                                                                                                                                                                                                                                                                                                                                                                                                                                                                                                                                                                                                                                                                                                                                                                                                                                                                                                                                                  fill="#d39e43"/><path d="m301.29,96.89h2.27v5.09h4.34v-5.09h2.27v12.7h-2.27v-5.63h-4.34v5.63h-2.27v-12.7Z" fill="#d39e43"/></g></svg>